<svg width="291.297" height="124.335" viewBox="0 0 291.297 124.335" xmlns="http://www.w3.org/2000/svg"><g id="svgGroup" stroke-linecap="round" fill-rule="evenodd" font-size="9pt" stroke="#00b3db" stroke-width="0.25mm" fill="#00b3db" style="stroke:#00b3db;stroke-width:0.25mm;fill:#00b3db"><path d="M 125.074 78.573 A 40.972 40.972 0 0 0 126.612 77.166 A 16.393 16.393 0 0 0 130.964 81.526 A 14.302 14.302 0 0 0 135.566 83.577 A 18.428 18.428 0 0 0 140.086 84.107 A 16.067 16.067 0 0 0 145.916 83.044 A 17.641 17.641 0 0 0 151.389 79.612 A 20.397 20.397 0 0 0 155.755 73.995 A 25.376 25.376 0 0 0 158.064 67.642 A 46.552 46.552 0 0 0 161.988 67.315 A 38.172 38.172 0 0 0 165.416 66.736 A 198.324 198.324 0 0 0 163.985 69.211 Q 157.323 80.934 153.881 90.915 Q 149.876 102.53 149.876 111.252 A 27.942 27.942 0 0 0 150.004 113.989 Q 150.19 115.882 150.649 117.46 A 12.277 12.277 0 0 0 152.19 120.864 A 7.376 7.376 0 0 0 156.424 123.961 A 10.487 10.487 0 0 0 159.31 124.335 A 9.799 9.799 0 0 0 166.437 121.294 Q 167.984 119.756 169.273 117.44 A 30.585 30.585 0 0 0 171.325 112.809 A 72.768 72.768 0 0 0 173.083 107.096 Q 174.413 102.077 175.295 96.195 A 149.339 149.339 0 0 0 176.576 84.107 A 18.631 18.631 0 0 0 181.319 83.416 A 21.258 21.258 0 0 0 187.167 80.725 A 9.504 9.504 0 0 0 191.034 83.459 A 10.688 10.688 0 0 0 194.821 84.107 Q 200.428 84.107 204.834 81.081 A 35.288 35.288 0 0 0 208.318 78.343 A 42.685 42.685 0 0 0 209.68 77.067 A 16.792 16.792 0 0 0 211.375 79.034 Q 214.803 82.402 220.075 83.534 A 27.673 27.673 0 0 0 225.882 84.107 Q 232.735 84.107 238.743 80.725 A 47.732 47.732 0 0 0 240.312 79.802 A 37.469 37.469 0 0 0 243.328 77.758 A 29.056 29.056 0 0 0 243.416 78.206 A 14.96 14.96 0 0 0 244.083 80.547 Q 244.935 82.747 246.553 83.588 A 4.899 4.899 0 0 0 248.844 84.107 Q 251.603 84.107 252.894 82.638 A 5.222 5.222 0 0 0 253.472 81.816 Q 254.41 80.205 255.163 76.987 Q 256.498 71.558 258.634 66.663 Q 260.77 61.768 262.951 58.786 A 23.286 23.286 0 0 1 263.252 58.383 Q 264.636 56.574 265.66 56.034 A 1.746 1.746 0 0 1 266.466 55.805 A 1.292 1.292 0 0 1 266.519 55.806 Q 267.259 55.836 267.408 56.727 A 3.066 3.066 0 0 1 267.445 57.229 Q 267.445 57.706 267.341 58.861 A 81.163 81.163 0 0 1 267.267 59.632 Q 267 60.967 267 62.302 A 11.597 11.597 0 0 0 267.194 64.474 A 7.994 7.994 0 0 0 269.448 68.799 Q 271.895 71.202 276.612 71.202 Q 280.35 71.202 283.688 69.377 Q 287.025 67.553 289.517 64.972 A 5.811 5.811 0 0 0 290.053 64.32 Q 291.297 62.562 291.297 59.81 Q 291.297 58.908 291.107 58.196 A 3.784 3.784 0 0 0 290.63 57.095 A 2.737 2.737 0 0 0 290.386 56.774 A 2.02 2.02 0 0 0 288.805 56.072 A 2.672 2.672 0 0 0 288.228 56.135 Q 287.691 56.253 287.171 56.594 A 4.871 4.871 0 0 0 286.402 57.229 Q 283.649 59.982 281.599 60.8 A 4.357 4.357 0 0 1 279.994 61.145 A 3.084 3.084 0 0 1 279.904 61.143 Q 277.769 61.081 277.769 58.03 A 5.01 5.01 0 0 1 277.8 57.54 Q 277.918 56.394 278.481 53.58 A 185.375 185.375 0 0 0 278.581 53.021 Q 279.282 49.055 279.282 47.973 Q 279.282 42.188 273.497 42.188 Q 270.56 42.188 267.045 44.235 A 16.892 16.892 0 0 0 264.978 45.667 Q 262.463 47.686 259.88 51.088 Q 256.231 55.894 253.294 63.548 A 91.75 91.75 0 0 1 253.534 61.222 Q 253.663 60.12 253.809 59.139 A 44.795 44.795 0 0 1 254.184 56.962 A 99.447 99.447 0 0 1 254.553 55.206 Q 254.754 54.285 254.991 53.276 A 179.014 179.014 0 0 1 255.608 50.732 A 116.853 116.853 0 0 0 256.057 49.006 Q 256.943 45.484 256.943 44.324 Q 256.943 43.735 256.784 43.325 A 1.371 1.371 0 0 0 256.231 42.633 Q 255.697 42.299 254.562 42.215 A 11.275 11.275 0 0 0 253.739 42.188 Q 251.784 42.188 250.346 42.611 A 6.41 6.41 0 0 0 248.622 43.389 A 5.922 5.922 0 0 0 246.741 45.43 A 8.618 8.618 0 0 0 245.996 47.172 A 68.478 68.478 0 0 0 245.502 48.806 A 72.93 72.93 0 0 0 242.716 67.391 A 30.129 30.129 0 0 1 235.984 72.403 A 30.61 30.61 0 0 1 233.579 73.592 Q 229.9 75.207 226.861 75.207 Q 224.671 75.207 222.976 74.701 A 7.346 7.346 0 0 1 218.406 71.113 A 68.92 68.92 0 0 0 219.765 70.764 Q 225.737 69.167 229.577 66.932 A 18.183 18.183 0 0 0 233.314 64.126 A 17.749 17.749 0 0 0 233.45 63.988 A 14.366 14.366 0 0 0 237.719 53.58 A 14.846 14.846 0 0 0 237.444 50.654 A 10.199 10.199 0 0 0 234.604 45.258 A 10.263 10.263 0 0 0 229.911 42.619 A 14.11 14.11 0 0 0 226.327 42.188 Q 220.542 42.188 215.959 45.303 A 20.491 20.491 0 0 0 213.531 47.235 A 21.709 21.709 0 0 0 208.794 53.713 Q 206.213 59.009 206.213 65.15 A 24.828 24.828 0 0 0 206.473 68.896 A 77.514 77.514 0 0 1 206.409 68.964 Q 205.465 69.962 204.631 70.754 A 25.829 25.829 0 0 1 203.009 72.181 A 11.211 11.211 0 0 1 201.529 73.189 A 8.273 8.273 0 0 1 197.402 74.317 A 7.492 7.492 0 0 1 196.472 74.254 Q 195.97 74.19 195.394 74.064 A 18.349 18.349 0 0 1 194.287 73.783 Q 196.957 70.134 198.47 65.684 Q 199.983 61.234 199.983 56.517 A 25.923 25.923 0 0 0 199.974 55.837 Q 199.912 53.482 199.418 51.468 A 14.106 14.106 0 0 0 196.824 46.015 A 12.497 12.497 0 0 0 196.111 45.186 A 9.792 9.792 0 0 0 188.68 42.01 Q 185.565 42.01 182.806 43.567 Q 181.039 44.565 179.235 46.385 A 28.966 28.966 0 0 0 177.199 48.685 A 12.81 12.81 0 0 1 177.196 48.646 Q 177.132 47.849 177.116 46.432 A 90.832 90.832 0 0 1 177.11 45.392 Q 177.051 43.914 176.658 43.084 A 2.087 2.087 0 0 0 176.176 42.41 A 2.095 2.095 0 0 0 176.108 42.352 Q 175.505 41.857 174.428 41.713 A 7.306 7.306 0 0 0 173.461 41.654 Q 170.257 41.654 168.121 43.167 A 6.158 6.158 0 0 0 167.931 43.307 Q 165.989 44.797 166.074 47.261 Q 166.175 50.129 166.218 55.53 A 943.203 943.203 0 0 1 166.23 57.133 A 79.75 79.75 0 0 1 166.068 57.169 Q 163.984 57.638 162.139 57.921 A 38.349 38.349 0 0 1 158.776 58.297 Q 158.064 51.444 153.926 46.771 Q 149.787 42.099 143.023 42.099 Q 137.505 42.099 132.966 45.08 Q 128.427 48.062 125.846 53.357 A 24.539 24.539 0 0 0 123.983 58.691 A 30.292 30.292 0 0 0 123.265 65.417 A 25.164 25.164 0 0 0 123.268 65.805 A 21.852 21.852 0 0 0 123.51 68.882 A 70.475 70.475 0 0 1 123.381 69.017 Q 122.413 70.023 121.555 70.813 A 23.208 23.208 0 0 1 119.883 72.225 A 10.174 10.174 0 0 1 117.592 73.54 A 10.742 10.742 0 0 1 113.475 74.317 Q 111.161 74.317 109.737 72.759 A 4.79 4.79 0 0 1 109.46 72.427 Q 108.251 70.837 107.69 67.553 A 154.01 154.01 0 0 0 113.567 58.96 A 128.875 128.875 0 0 0 123.621 39.874 A 99.3 99.3 0 0 0 125.946 33.819 Q 129.495 23.542 129.495 15.31 A 44.403 44.403 0 0 0 129.495 15.238 Q 129.483 7.903 127.048 3.962 A 10.378 10.378 0 0 0 126.066 2.616 A 7.265 7.265 0 0 0 120.328 0.002 Q 114.654 0.002 110.157 5.609 A 30.168 30.168 0 0 0 107.29 9.97 A 61.802 61.802 0 0 0 106.926 10.641 Q 104.225 15.708 102.196 21.76 A 100.582 100.582 0 0 0 99.013 33.822 A 177.108 177.108 0 0 0 98.279 37.667 Q 97.263 43.344 96.746 48.484 A 100.845 100.845 0 0 0 96.209 58.564 A 60.659 60.659 0 0 0 96.35 62.778 Q 96.62 66.652 97.406 69.956 A 29.44 29.44 0 0 0 99.992 76.987 A 17.086 17.086 0 0 0 100.964 78.602 Q 104.72 84.107 111.606 84.107 A 21.326 21.326 0 0 0 111.628 84.107 A 17.821 17.821 0 0 0 121.797 81.081 A 34.647 34.647 0 0 0 125.074 78.573 Z M 7.729 83.707 A 12.821 12.821 0 0 0 11.036 84.107 A 11.585 11.585 0 0 0 13.691 83.791 Q 20.198 82.263 27.501 73.338 A 6.007 6.007 0 0 0 28.305 72.137 A 7.796 7.796 0 0 0 28.683 71.243 A 243.459 243.459 0 0 0 27.679 82.505 Q 27.501 85.264 28.703 86.688 A 2.918 2.918 0 0 0 29.008 86.999 Q 30.276 88.112 33.108 88.112 Q 34.76 88.112 36.105 87.78 A 7.976 7.976 0 0 0 38.359 86.866 A 5.439 5.439 0 0 0 38.448 86.81 Q 39.656 86.042 40.153 84.821 A 4.934 4.934 0 0 0 40.495 83.128 A 33.973 33.973 0 0 0 40.741 83.151 Q 43.345 83.393 47.546 83.395 A 146.71 146.71 0 0 0 47.615 83.395 A 95.033 95.033 0 0 0 51.101 83.332 Q 60.804 82.976 67.996 80.591 A 42.672 42.672 0 0 0 69.797 79.95 Q 76.933 77.223 80.857 72.626 Q 85.262 67.464 85.262 60.433 Q 85.262 55.983 82.414 52.556 A 12.303 12.303 0 0 0 81.585 51.655 Q 80.016 50.11 77.811 49.02 A 21.066 21.066 0 0 0 74.048 47.617 Q 79.485 46.34 83.541 44.197 A 24.215 24.215 0 0 0 89.623 39.74 Q 94.963 34.267 94.963 26.702 A 16.029 16.029 0 0 0 91.712 16.723 A 19.97 19.97 0 0 0 87.042 12.373 A 21.093 21.093 0 0 0 85.924 11.658 Q 78.023 6.944 63.012 6.944 Q 52.51 6.944 42.453 9.347 A 77.655 77.655 0 0 0 34.147 11.807 A 58.729 58.729 0 0 0 24.92 16.022 A 29.392 29.392 0 0 0 23.42 16.941 Q 21.145 18.437 20.426 19.671 A 6.638 6.638 0 0 0 19.67 21.67 A 8.908 8.908 0 0 0 19.491 23.498 A 5.679 5.679 0 0 0 19.6 24.638 A 4.05 4.05 0 0 0 20.337 26.301 A 2.681 2.681 0 0 0 21.772 27.282 A 3.683 3.683 0 0 0 22.784 27.414 A 4.788 4.788 0 0 0 23.095 27.403 Q 24.394 27.319 26.058 26.54 A 17.747 17.747 0 0 0 27.59 25.723 A 43.717 43.717 0 0 1 28.592 25.139 Q 31.706 23.382 35.444 21.926 A 74.413 74.413 0 0 1 42.72 19.537 Q 51.62 17.09 61.143 17.09 A 68.708 68.708 0 0 1 63.079 17.116 Q 72.124 17.371 76.718 20.071 A 13.218 13.218 0 0 1 78.57 21.372 A 8.598 8.598 0 0 1 81.791 28.215 Q 81.791 32.309 78.854 35.379 Q 75.917 38.45 70.8 40.141 A 35.246 35.246 0 0 1 65.738 41.394 A 44.847 44.847 0 0 1 59.363 42.01 Q 57.972 42.053 57.006 42.457 A 3.384 3.384 0 0 0 55.447 43.701 Q 54.379 45.303 54.379 47.884 Q 54.379 48.982 54.65 49.708 A 2.378 2.378 0 0 0 55.091 50.465 Q 55.614 51.053 56.713 51.257 A 6.572 6.572 0 0 0 57.583 51.355 A 43.952 43.952 0 0 1 59.179 51.437 Q 63.293 51.728 66.003 52.769 A 10.263 10.263 0 0 1 68.753 54.292 A 11.159 11.159 0 0 1 69.443 54.891 A 7.947 7.947 0 0 1 72.09 60.878 A 9.561 9.561 0 0 1 69.208 67.772 A 15.436 15.436 0 0 1 66.261 70.089 A 15.905 15.905 0 0 1 64.736 70.917 Q 58.908 73.694 47.971 73.694 Q 45.969 73.694 43.065 73.493 A 143.205 143.205 0 0 1 41.029 73.338 A 202.873 202.873 0 0 1 41.951 65.104 A 240.359 240.359 0 0 1 44.322 50.687 A 301.917 301.917 0 0 1 44.533 49.613 Q 46.742 38.489 48.95 31.864 Q 49.25 30.963 49.382 30.174 A 7.06 7.06 0 0 0 49.484 29.016 Q 49.484 26.557 45.9 26.096 A 14.55 14.55 0 0 0 44.055 25.99 A 17.989 17.989 0 0 0 42.713 26.038 Q 40.595 26.196 39.16 26.88 A 4.358 4.358 0 0 0 37.345 28.46 A 5.517 5.517 0 0 0 36.668 29.995 Q 33.108 42.722 30.794 56.383 A 284.654 284.654 0 0 0 29.612 63.973 A 243.459 243.459 0 0 0 29.172 67.2 A 8.971 8.971 0 0 0 29.154 66.975 Q 29.099 66.391 28.963 65.904 A 3.894 3.894 0 0 0 28.525 64.883 A 2.817 2.817 0 0 0 28.257 64.52 A 1.98 1.98 0 0 0 26.7 63.815 A 2.792 2.792 0 0 0 25.045 64.364 A 4.24 4.24 0 0 0 24.297 65.061 A 163.93 163.93 0 0 1 22.993 66.607 Q 19.887 70.241 17.889 72.092 Q 16.237 73.621 14.963 74.099 A 3.084 3.084 0 0 1 13.884 74.317 Q 12.854 74.317 12.187 73.788 A 2.608 2.608 0 0 1 11.481 72.893 A 4.428 4.428 0 0 1 11.404 72.73 Q 10.969 71.763 10.832 70.274 A 16.176 16.176 0 0 1 10.769 68.799 Q 10.769 66.087 12.073 59.518 A 216.351 216.351 0 0 1 12.905 55.538 Q 14.233 49.179 14.518 46.441 A 12.31 12.31 0 0 0 14.596 45.214 A 3.82 3.82 0 0 0 14.59 44.994 Q 14.461 42.757 11.657 42.303 A 10.072 10.072 0 0 0 10.057 42.188 A 15.328 15.328 0 0 0 9.689 42.192 Q 7.035 42.256 5.785 43.256 A 3.601 3.601 0 0 0 5.54 43.471 Q 4.737 44.242 4.142 45.71 A 13.974 13.974 0 0 0 3.649 47.172 A 86.083 86.083 0 0 0 2.529 51.362 A 102.475 102.475 0 0 0 1.024 58.875 A 103.393 103.393 0 0 0 0.462 62.748 Q 0.236 64.563 0.121 66.133 A 41.452 41.452 0 0 0 0 69.155 A 31.506 31.506 0 0 0 0.076 71.384 Q 0.448 76.617 2.626 80.013 A 8.428 8.428 0 0 0 7.729 83.707 Z M 118.37 8.813 A 1.691 1.691 0 0 0 117.279 9.304 Q 115.658 10.717 113.742 16.2 A 86.584 86.584 0 0 0 111.894 22.241 Q 110.427 27.692 109.203 34.534 A 139.145 139.145 0 0 0 107.352 49.165 A 119.855 119.855 0 0 0 107.067 55.538 A 119.017 119.017 0 0 0 114.956 40.22 A 104.041 104.041 0 0 0 117.124 34.667 A 71.445 71.445 0 0 0 119.646 26.017 Q 120.634 21.535 120.819 17.444 A 41.28 41.28 0 0 0 120.862 15.577 A 28.043 28.043 0 0 0 120.788 13.451 Q 120.533 10.115 119.394 9.178 A 1.566 1.566 0 0 0 118.37 8.813 Z M 160.022 115.613 Q 162.425 115.613 164.027 105.155 A 149.675 149.675 0 0 0 165.066 96.592 Q 165.431 92.725 165.683 88.357 A 318.48 318.48 0 0 0 166.074 79.123 A 143.163 143.163 0 0 0 162.094 89.409 A 115.511 115.511 0 0 0 160.022 96.122 A 79.462 79.462 0 0 0 158.755 101.385 Q 158.246 103.899 158.008 106.1 A 33.864 33.864 0 0 0 157.797 109.739 A 19.597 19.597 0 0 0 157.856 111.312 Q 157.98 112.854 158.369 113.868 A 5.074 5.074 0 0 0 158.465 114.1 A 5.157 5.157 0 0 0 158.767 114.689 Q 159.136 115.298 159.564 115.506 A 1.038 1.038 0 0 0 160.022 115.613 Z M 177.021 75.563 A 10.767 10.767 0 0 0 181.015 73.727 A 14.573 14.573 0 0 0 182.94 72.047 Q 185.654 69.244 187.256 65.105 Q 188.858 60.967 188.858 56.428 Q 188.858 54.715 188.419 53.533 A 4.347 4.347 0 0 0 187.79 52.378 Q 186.722 50.999 184.942 50.999 A 4.169 4.169 0 0 0 182.922 51.595 Q 180.63 52.873 177.796 56.894 A 46.101 46.101 0 0 0 177.199 57.763 A 247.708 247.708 0 0 0 177.16 59.949 Q 177.126 62.438 177.115 65.898 A 1079.121 1079.121 0 0 0 177.11 69.244 A 315.498 315.498 0 0 1 177.104 71.174 Q 177.093 73.044 177.058 74.417 A 80.095 80.095 0 0 1 177.021 75.563 Z M 143.112 51.533 L 142.667 51.533 A 6.562 6.562 0 0 0 137.756 53.709 A 10.141 10.141 0 0 0 136.749 54.959 A 11.825 11.825 0 0 0 135.2 58.277 Q 134.744 59.789 134.545 61.606 A 27.647 27.647 0 0 0 134.39 64.616 A 20.078 20.078 0 0 0 134.572 67.416 Q 134.773 68.839 135.196 69.994 A 8.267 8.267 0 0 0 136.304 72.092 A 7.872 7.872 0 0 0 137.565 73.453 A 4.922 4.922 0 0 0 140.798 74.673 A 6.308 6.308 0 0 0 145.271 72.837 A 8.657 8.657 0 0 0 145.738 72.359 A 9.618 9.618 0 0 0 147.327 69.892 Q 147.839 68.774 148.185 67.409 A 20.333 20.333 0 0 0 148.541 65.684 Q 145.782 63.815 144.314 60.789 Q 142.845 57.763 142.845 54.381 Q 142.845 52.957 143.112 51.533 Z M 9.693 36.161 A 12.886 12.886 0 0 0 11.748 36.314 A 11.511 11.511 0 0 0 14.226 36.061 A 7.878 7.878 0 0 0 17.889 34.222 A 6.724 6.724 0 0 0 19.864 31.081 A 8.83 8.83 0 0 0 20.203 28.571 A 7.602 7.602 0 0 0 20.153 27.685 A 5.213 5.213 0 0 0 18.156 24.032 A 6.675 6.675 0 0 0 17.722 23.719 Q 16.582 22.966 15.1 22.653 A 11.043 11.043 0 0 0 12.816 22.43 Q 9.167 22.43 6.72 24.521 A 8.39 8.39 0 0 0 6.352 24.854 A 6.509 6.509 0 0 0 4.272 29.728 A 8.517 8.517 0 0 0 4.455 31.54 A 5.679 5.679 0 0 0 6.141 34.578 A 5.606 5.606 0 0 0 7.714 35.596 Q 8.592 35.982 9.693 36.161 Z M 216.982 63.993 L 216.982 64.171 Q 222.233 62.925 225.259 60.433 A 9.648 9.648 0 0 0 226.982 58.625 A 6.675 6.675 0 0 0 228.285 54.648 A 4.965 4.965 0 0 0 228.154 53.476 A 3.451 3.451 0 0 0 227.351 51.933 A 3.081 3.081 0 0 0 225.483 50.959 A 4.4 4.4 0 0 0 224.814 50.91 A 5.413 5.413 0 0 0 221.098 52.405 Q 220.351 53.077 219.686 54.053 A 12.809 12.809 0 0 0 219.252 54.737 A 15.797 15.797 0 0 0 217.357 59.846 A 21.876 21.876 0 0 0 216.982 63.993 Z" vector-effect="non-scaling-stroke"/></g></svg>