<svg width="25.441" height="27.36" viewBox="0 0 25.441 27.36" xmlns="http://www.w3.org/2000/svg"><g id="svgGroup" stroke-linecap="round" fill-rule="evenodd" font-size="9pt" stroke="#00b3db" stroke-width="0.25mm" fill="#00b3db" style="stroke:#00b3db;stroke-width:0.25mm;fill:#00b3db"><path d="M 25.44 6.66 Q 25.44 9.21 23.64 11.055 A 8.162 8.162 0 0 1 21.59 12.557 Q 20.223 13.28 18.39 13.71 Q 19.996 14.15 20.931 15.071 A 4.147 4.147 0 0 1 21.21 15.375 Q 22.17 16.53 22.17 18.03 Q 22.17 20.4 20.685 22.14 A 7.717 7.717 0 0 1 18.859 23.681 Q 17.775 24.353 16.35 24.825 A 17.141 17.141 0 0 1 13.632 25.471 Q 12.244 25.691 10.655 25.749 A 32.033 32.033 0 0 1 9.48 25.77 Q 7.98 25.77 7.08 25.68 Q 7.05 26.52 6.36 26.94 A 2.689 2.689 0 0 1 5.6 27.249 Q 5.26 27.332 4.862 27.353 A 5.181 5.181 0 0 1 4.59 27.36 A 3.797 3.797 0 0 1 4.078 27.328 Q 3.511 27.251 3.208 26.985 A 0.984 0.984 0 0 1 3.105 26.88 Q 2.713 26.416 2.757 25.53 A 3.893 3.893 0 0 1 2.76 25.47 Q 3.03 21.27 3.81 16.665 Q 4.59 12.06 5.79 7.77 A 1.86 1.86 0 0 1 6.018 7.253 A 1.469 1.469 0 0 1 6.63 6.72 A 2.744 2.744 0 0 1 7.206 6.526 Q 7.491 6.462 7.828 6.436 A 6.064 6.064 0 0 1 8.28 6.42 Q 10.11 6.42 10.11 7.44 A 2.38 2.38 0 0 1 10.076 7.831 Q 10.044 8.022 9.982 8.232 A 4.542 4.542 0 0 1 9.93 8.4 Q 9.186 10.633 8.441 14.383 A 101.766 101.766 0 0 0 8.37 14.745 A 81.02 81.02 0 0 0 7.571 19.605 A 68.384 68.384 0 0 0 7.26 22.38 Q 8.548 22.488 9.404 22.499 A 14.821 14.821 0 0 0 9.6 22.5 A 23.114 23.114 0 0 0 11.758 22.407 Q 13.907 22.204 15.251 21.564 A 5.361 5.361 0 0 0 15.765 21.285 A 5.203 5.203 0 0 0 16.759 20.504 A 3.223 3.223 0 0 0 17.73 18.18 A 2.679 2.679 0 0 0 16.838 16.162 A 3.762 3.762 0 0 0 16.605 15.96 A 3.459 3.459 0 0 0 15.678 15.447 Q 14.765 15.096 13.378 14.998 A 14.815 14.815 0 0 0 12.84 14.97 A 2.215 2.215 0 0 1 12.547 14.937 Q 12.213 14.875 12.037 14.708 A 0.622 0.622 0 0 1 12 14.67 A 0.802 0.802 0 0 1 11.851 14.415 Q 11.766 14.186 11.76 13.846 A 2.904 2.904 0 0 1 11.76 13.8 A 3.437 3.437 0 0 1 11.807 13.218 Q 11.862 12.894 11.985 12.632 A 1.829 1.829 0 0 1 12.12 12.39 A 1.141 1.141 0 0 1 12.646 11.971 Q 12.971 11.835 13.44 11.82 A 15.117 15.117 0 0 0 15.589 11.613 A 11.881 11.881 0 0 0 17.295 11.19 A 8.198 8.198 0 0 0 18.575 10.65 Q 19.422 10.2 20.01 9.585 Q 21 8.55 21 7.17 A 2.898 2.898 0 0 0 19.914 4.864 A 4.455 4.455 0 0 0 19.29 4.425 A 5.822 5.822 0 0 0 17.971 3.874 Q 16.637 3.484 14.693 3.429 A 23.16 23.16 0 0 0 14.04 3.42 Q 10.83 3.42 7.83 4.245 A 25.083 25.083 0 0 0 5.377 5.05 Q 3.911 5.621 2.73 6.33 Q 1.77 6.9 1.11 6.9 A 1.242 1.242 0 0 1 0.769 6.856 A 0.904 0.904 0 0 1 0.285 6.525 A 1.365 1.365 0 0 1 0.037 5.965 A 1.914 1.914 0 0 1 0 5.58 A 3.003 3.003 0 0 1 0.06 4.964 A 2.237 2.237 0 0 1 0.315 4.29 A 1.68 1.68 0 0 1 0.562 3.975 Q 0.838 3.69 1.324 3.37 A 9.907 9.907 0 0 1 1.83 3.06 A 19.796 19.796 0 0 1 4.94 1.64 A 26.176 26.176 0 0 1 7.74 0.81 Q 11.13 0 14.67 0 A 25.881 25.881 0 0 1 17.506 0.145 Q 20.534 0.48 22.393 1.589 A 7.11 7.11 0 0 1 22.77 1.83 A 6.732 6.732 0 0 1 24.344 3.297 A 5.403 5.403 0 0 1 25.44 6.66 Z" vector-effect="non-scaling-stroke"/></g></svg>