<?xml version="1.0" standalone="no"?>
<!DOCTYPE svg PUBLIC "-//W3C//DTD SVG 20010904//EN"
 "http://www.w3.org/TR/2001/REC-SVG-20010904/DTD/svg10.dtd">
<svg version="1.0" xmlns="http://www.w3.org/2000/svg"
 width="32.000000pt" height="31.000000pt" viewBox="0 0 32.000000 31.000000"
 preserveAspectRatio="xMidYMid meet">

<g transform="translate(0.000000,31.000000) scale(0.100000,-0.100000)"
fill="#000000" stroke="none">
<path d="M100 299 c-88 -35 -127 -146 -78 -219 39 -57 72 -75 138 -75 63 0 95
16 134 69 17 23 22 45 24 132 l4 104 -99 -1 c-54 0 -109 -5 -123 -10z m129
-27 c65 -35 88 -115 53 -181 -50 -93 -194 -93 -244 0 -49 91 17 199 122 199
19 0 51 -8 69 -18z"/>
<path d="M92 218 c-15 -15 -16 -110 0 -126 16 -16 120 -16 136 0 14 14 16 78
3 78 -6 0 -16 12 -23 28 -11 23 -20 27 -58 30 -26 2 -50 -2 -58 -10z m73 -38
c-3 -5 -12 -10 -20 -10 -8 0 -17 5 -20 10 -4 6 5 10 20 10 15 0 24 -4 20 -10z
m30 -50 c4 -6 -10 -10 -35 -10 -25 0 -39 4 -35 10 3 6 19 10 35 10 16 0 32 -4
35 -10z"/>
</g>
</svg>
